<?xml version="1.0" encoding="utf-8"?>
<!-- Generator: Adobe Illustrator 23.0.2, SVG Export Plug-In . SVG Version: 6.00 Build 0)  -->
<svg version="1.1" id="Layer_1" xmlns="http://www.w3.org/2000/svg" xmlns:xlink="http://www.w3.org/1999/xlink" x="0px" y="0px"
	 viewBox="0 0 401 401" style="enable-background:new 0 0 401 401;" xml:space="preserve">
<style type="text/css">
	.st0{fill:#FFFFFF;}
</style>
<path class="st0" d="M370.1,235.9c-5.5,0-10,5-10,11.1v98.3c0,18.3-13.4,33.1-30,33.2H49.9c-16.5,0-29.9-14.8-30-33.2V56.9
	c0-18.3,13.4-33.1,30-33.2h88.7c5.5,0,10-5,10-11.1s-4.5-11.1-10-11.1H49.9C22.4,1.6,0,26.3,0,56.9v288.3
	c0,30.6,22.4,55.3,49.9,55.3h280.2c27.6,0,49.9-24.8,49.9-55.3V247C380.1,240.9,375.6,235.9,370.1,235.9z"/>
<path class="st0" d="M376.1,14.7c-17.6-17.6-46-17.6-63.6,0L134.4,192.9c-1.2,1.2-2.1,2.7-2.6,4.4l-23.4,84.6c-1,3.5,0,7.2,2.6,9.7
	c2.5,2.5,6.3,3.5,9.7,2.6l84.6-23.4c1.7-0.5,3.2-1.3,4.4-2.6L387.9,90c17.5-17.6,17.5-46,0-63.6L376.1,14.7z M156.2,199.3L302,53.5
	l47,47L203.2,246.4L156.2,199.3z M146.8,218.2l37.6,37.6l-52,14.4L146.8,218.2z M373.7,75.8l-10.6,10.6l-47-47l10.6-10.6
	c9.7-9.7,25.6-9.7,35.3,0l11.7,11.7C383.5,50.3,383.5,66.1,373.7,75.8z"/>
</svg>
