<?xml version="1.0" encoding="utf-8"?>
<!-- Generator: Adobe Illustrator 23.0.2, SVG Export Plug-In . SVG Version: 6.00 Build 0)  -->
<svg version="1.1" id="Layer_1" xmlns="http://www.w3.org/2000/svg" xmlns:xlink="http://www.w3.org/1999/xlink" x="0px" y="0px"
	 viewBox="0 0 512 512" style="enable-background:new 0 0 512 512;" xml:space="preserve">
<style type="text/css">
	.st0{fill:#FFFFFF;}
</style>
<path class="st0" d="M61.5,279.6c-1-8.2-1.5-16.4-1.5-23.6c0-107.4,88.6-196,196-196c50.1,0,97,20.2,131.5,51.7l-17.3,17.6
	c-3.9,3.9-5.4,9.6-3.9,15c1.8,5.1,6,9,11.4,10.2c3,0.6,102.2,32.6,95.9,31.3c8,2.7,19.9-5.9,17.7-17.7c-0.6-3-22.6-113.2-21.3-106.9
	c-1.2-5.4-5.1-9.9-10.5-11.4c-5.1-1.5-10.8,0-14.7,3.9l-14.7,14.4C384.8,25.8,322.6,0,256,0C115.3,0,0,115.3,0,256v0.6
	c0,8.5,0.4,15,0.8,20c0.6,6.6,5.5,12.1,12,13.4l30.8,6.2C53.7,298.1,62.7,289.7,61.5,279.6z"/>
<path class="st0" d="M499.3,222l-30.9-6.3c-10-2-19.1,6.4-17.9,16.5c1.1,8.8,1.5,17.3,1.5,23.8c0,107.4-88.6,196-196,196
	c-50.1,0-97-20.2-131.5-52l17.3-17.3c3.9-3.9,5.4-9.6,3.9-15c-1.8-5.1-6-9-11.4-10.2c-3-0.6-102.2-32.6-95.9-31.3
	c-5.1-0.9-10.2,0.6-13.5,4.2c-3.6,3.3-5.1,8.7-4.2,13.5c0.6,3,22.6,112.2,21.3,105.9c1.2,5.4,5.1,9.9,10.5,11.4
	c6.3,1.6,11.5-0.3,14.7-3.9l14.4-14.4C126.9,485.2,189.1,512,256,512c140.7,0,256-115.3,256-256v-0.9c0-6.6-0.2-13.2-0.8-19.7
	C510.6,228.8,505.8,223.4,499.3,222z"/>
</svg>
