<?xml version="1.0" encoding="utf-8"?>
<!-- Generator: Adobe Illustrator 23.0.2, SVG Export Plug-In . SVG Version: 6.00 Build 0)  -->
<svg version="1.1" id="Capa_1" xmlns="http://www.w3.org/2000/svg" xmlns:xlink="http://www.w3.org/1999/xlink" x="0px" y="0px"
	 viewBox="0 0 512 512" style="enable-background:new 0 0 512 512;" xml:space="preserve">
<style type="text/css">
	.st0{fill:#626664;}
</style>
<g>
	<g>
		<path class="st0" d="M501.6,384.6L320.5,51.3c-13.7-23-37.8-36.7-64.6-36.7s-50.9,13.7-64.6,36.7c-0.1,0.2-0.2,0.4-0.3,0.5
			L10.7,384.1c-14,23.5-14.2,51.7-0.7,75.5c13.5,23.8,37.9,37.9,65.3,37.9h360.5c27.3,0,52.7-14.2,66.3-37.9
			C515.5,435.8,515.3,407.6,501.6,384.6z M226,167.1c0-16.6,13.4-30,30-30c16.6,0,30,13.4,30,30v120.1c0,16.6-13.4,30-30,30
			s-30-13.4-30-30L226,167.1L226,167.1z M256,437.4c-24.8,0-45-20.2-45-45c0-24.8,20.2-45,45-45c24.8,0,45,20.2,45,45
			C301,417.2,280.8,437.4,256,437.4z"/>
	</g>
</g>
</svg>
