<?xml version="1.0" encoding="utf-8"?>
<!-- Generator: Adobe Illustrator 23.0.2, SVG Export Plug-In . SVG Version: 6.00 Build 0)  -->
<svg version="1.1" id="Layer_1" xmlns="http://www.w3.org/2000/svg" xmlns:xlink="http://www.w3.org/1999/xlink" x="0px" y="0px"
	 viewBox="0 0 512 512" style="enable-background:new 0 0 512 512;" xml:space="preserve">
<style type="text/css">
	.st0{fill:#EFEDED;}
</style>
<g>
	<path class="st0" d="M72,144c-39.7,0-72-32.3-72-72S32.3,0,72,0s72,32.3,72,72S111.7,144,72,144z M72,32c-22.1,0-40,17.9-40,40
		s17.9,40,40,40s40-17.9,40-40S94.1,32,72,32z"/>
	<path class="st0" d="M72,328c-39.7,0-72-32.3-72-72s32.3-72,72-72s72,32.3,72,72S111.7,328,72,328z M72,216c-22.1,0-40,17.9-40,40
		s17.9,40,40,40s40-17.9,40-40S94.1,216,72,216z"/>
	<path class="st0" d="M72,512c-39.7,0-72-32.3-72-72s32.3-72,72-72s72,32.3,72,72S111.7,512,72,512z M72,400c-22.1,0-40,17.9-40,40
		s17.9,40,40,40s40-17.9,40-40S94.1,400,72,400z"/>
	<path class="st0" d="M440,144H248c-39.7,0-72-32.3-72-72s32.3-72,72-72h192c39.7,0,72,32.3,72,72S479.7,144,440,144z"/>
	<path class="st0" d="M440,328H248c-39.7,0-72-32.3-72-72s32.3-72,72-72h192c39.7,0,72,32.3,72,72S479.7,328,440,328z"/>
	<path class="st0" d="M440,512H248c-39.7,0-72-32.3-72-72s32.3-72,72-72h192c39.7,0,72,32.3,72,72S479.7,512,440,512z"/>
</g>
</svg>
