<?xml version="1.0" encoding="utf-8"?>
<!-- Generator: Adobe Illustrator 23.0.2, SVG Export Plug-In . SVG Version: 6.00 Build 0)  -->
<svg version="1.1" id="bold" xmlns="http://www.w3.org/2000/svg" xmlns:xlink="http://www.w3.org/1999/xlink" x="0px" y="0px"
	 viewBox="0 0 512 512" style="enable-background:new 0 0 512 512;" xml:space="preserve">
<style type="text/css">
	.st0{fill:#FFFFFF;}
</style>
<path class="st0" d="M380.6,72.3C355.8,28.2,308.1,0,256,0c-65.9,0-123.3,45.2-138.5,107.3C69.3,113.1,32,153.6,32,202.7
	c0,52.9,43.7,96,97.5,96h41.2V272c0-32.4,26.2-58.7,58.7-58.7h53.3c32.4,0,58.7,26.2,58.7,58.7v26.7h23.3
	c63.6,0,115.4-51,115.4-113.7C480,127.8,437.1,80,380.6,72.3z M256,192c-23.5,0-42.7-19.1-42.7-42.7s19.1-42.7,42.7-42.7
	s42.7,19.1,42.7,42.7S279.5,192,256,192z"/>
<circle class="st0" cx="85.3" cy="362.7" r="42.7"/>
<path class="st0" d="M112,426.7H58.7C26.3,426.7,0,453,0,485.3V496c0,8.8,7.2,16,16,16h138.7c8.8,0,16-7.2,16-16v-10.7
	C170.7,453,144.4,426.7,112,426.7z"/>
<circle class="st0" cx="426.7" cy="362.7" r="42.7"/>
<path class="st0" d="M453.3,426.7H400c-32.4,0-58.7,26.3-58.7,58.7V496c0,8.8,7.2,16,16,16H496c8.8,0,16-7.2,16-16v-10.7
	C512,453,485.7,426.7,453.3,426.7z"/>
</svg>
