<?xml version="1.0" encoding="utf-8"?>
<!-- Generator: Adobe Illustrator 23.0.2, SVG Export Plug-In . SVG Version: 6.00 Build 0)  -->
<svg version="1.1" id="Capa_1" xmlns="http://www.w3.org/2000/svg" xmlns:xlink="http://www.w3.org/1999/xlink" x="0px" y="0px"
	 viewBox="0 0 512 512" style="enable-background:new 0 0 512 512;" xml:space="preserve">
<style type="text/css">
	.st0{fill:#FFFFFF;}
</style>
<g>
	<g>
		<path class="st0" d="M444.6,191.1h-238c-4.1,0-7.5,3.4-7.5,7.5s3.4,7.5,7.5,7.5h238c4.1,0,7.5-3.4,7.5-7.5
			S448.7,191.1,444.6,191.1z"/>
		<path class="st0" d="M444.6,248.5h-238c-4.1,0-7.5,3.4-7.5,7.5s3.4,7.5,7.5,7.5h238c4.1,0,7.5-3.4,7.5-7.5
			S448.7,248.5,444.6,248.5z"/>
		<path class="st0" d="M444.6,305.8h-238c-4.1,0-7.5,3.4-7.5,7.5s3.4,7.5,7.5,7.5h238c4.1,0,7.5-3.4,7.5-7.5
			S448.7,305.8,444.6,305.8z"/>
		<path class="st0" d="M468.4,125.5H182.7c-24.1,0-43.6,19.6-43.6,43.6v179.6c0,24.1,19.6,43.6,43.6,43.6h200.2c2.1,0,4.1,1,5.5,2.6
			l64.7,81.9c2.5,3.2,6.3,5,10.2,5c1.4,0,2.9-0.2,4.4-0.7c5.3-1.9,8.8-6.7,8.8-12.3v-77.2c20.2-3.8,35.7-21.7,35.7-42.9V169.2
			C512,145.1,492.4,125.5,468.4,125.5L468.4,125.5z M497,348.8c0,15.6-12.7,28.4-28.3,28.6c-4.1,0.1-7.4,3.4-7.4,7.5v78.3
			l-61.2-77.4c-4.2-5.3-10.5-8.3-17.2-8.3H182.7c-15.8,0-28.6-12.8-28.6-28.6V169.2c0-15.8,12.8-28.6,28.6-28.6h285.6
			c15.8,0,28.6,12.8,28.6,28.6v179.6H497z"/>
		<path class="st0" d="M110.5,249.6c-5.1,0.7-9.7,3.4-12.9,7.4L46,322.2v-65.4c0-4.1-3.3-7.4-7.4-7.5c-13-0.2-23.6-10.9-23.6-23.9
			V69.1c0-13.2,10.7-23.9,23.9-23.9h248.7c13.2,0,23.9,10.7,23.9,23.9V98c0,4.1,3.4,7.5,7.5,7.5s7.5-3.4,7.5-7.5V69.1
			c0-21.5-17.5-38.9-38.9-38.9H38.9C17.5,30.1,0,47.6,0,69.1v156.4c0,18.7,13.4,34.4,31,38.1V330c0,5.3,3.3,9.9,8.3,11.6
			c1.4,0.5,2.8,0.7,4.1,0.7c3.7,0,7.2-1.7,9.6-4.7l56.3-71.3c0.8-1,2-1.7,3.3-1.9c4.1-0.6,7-4.4,6.4-8.5
			C118.4,251.8,114.6,249,110.5,249.6L110.5,249.6z"/>
	</g>
</g>
</svg>
